<svg width="256" height="256" viewBox="0 0 256 256" fill="none" xmlns="http://www.w3.org/2000/svg">
  <defs>
    <linearGradient id="bg" x1="0" y1="0" x2="256" y2="256" gradientUnits="userSpaceOnUse">
      <stop offset="0" stop-color="#24292f"/>
      <stop offset="1" stop-color="#2da44e"/>
    </linearGradient>
  </defs>
  <circle cx="128" cy="128" r="120" fill="url(#bg)"/>
  <path d="M128 51.2C95.072 51.2 68.267 77.824 68.267 110.592C68.267 136.874 86.315 159.616 111.787 167.808C115.029 168.405 117.76 166.144 117.76 163.584C117.76 161.28 117.76 154.88 117.76 147.2C97.749 151.467 92.843 139.52 92.843 139.52C89.813 131.584 85.419 129.451 85.419 129.451C79.36 125.184 85.675 125.184 85.675 125.184C92.16 125.696 95.573 131.904 95.573 131.904C101.291 141.397 110.293 138.581 113.664 136.874C114.219 132.096 116.181 128.896 118.144 126.976C101.675 125.184 84.096 118.656 84.096 102.4C84.096 97.536 85.931 93.696 88.96 90.752C88.405 89.344 87.125 85.056 89.344 80.064C89.344 80.064 93.099 78.848 102.4 85.12C105.813 84.096 109.568 83.584 113.536 83.584C117.504 83.584 121.259 84.096 124.672 85.12C133.973 78.848 137.728 80.064 137.728 80.064C139.947 85.056 138.667 89.344 138.112 90.752C141.141 93.696 142.976 97.536 142.976 102.4C142.976 118.72 125.397 125.184 108.928 126.976C111.36 128.896 113.493 132.992 113.493 139.52C113.493 152.96 113.493 163.84 113.493 163.584C113.493 166.144 116.224 168.405 119.467 167.808C144.981 159.616 163.072 136.874 163.072 110.592C163.072 77.824 136.267 51.2 103.339 51.2H128Z" fill="white"/>
  <circle cx="184" cy="72" r="36" fill="#2da44e" stroke="white" stroke-width="6"/>
  <path d="M170 72L180 82L198 62" stroke="white" stroke-width="5" stroke-linecap="round" stroke-linejoin="round"/>
</svg>
